<mxfile host="Electron" agent="Mozilla/5.0 (X11; Linux x86_64) AppleWebKit/537.36 (KHTML, like Gecko) draw.io/27.0.9 Chrome/134.0.6998.205 Electron/35.4.0 Safari/537.36" version="27.0.9">
  <diagram name="Page-1" id="uY9DRr6q7Ka7HjbumQZD">
    <mxGraphModel dx="1164" dy="699" grid="1" gridSize="10" guides="1" tooltips="1" connect="1" arrows="1" fold="1" page="1" pageScale="1" pageWidth="850" pageHeight="1100" math="0" shadow="0">
      <root>
        <mxCell id="0" />
        <mxCell id="1" parent="0" />
        <mxCell id="2rZHAvcLP-O6_RwRUIRf-17" value="" style="rounded=0;whiteSpace=wrap;html=1;" vertex="1" parent="1">
          <mxGeometry x="20" y="30" width="810" height="410" as="geometry" />
        </mxCell>
        <mxCell id="2rZHAvcLP-O6_RwRUIRf-7" style="edgeStyle=orthogonalEdgeStyle;rounded=0;orthogonalLoop=1;jettySize=auto;html=1;exitX=0;exitY=0.5;exitDx=0;exitDy=0;entryX=0;entryY=0.5;entryDx=0;entryDy=0;" edge="1" parent="1" source="2rZHAvcLP-O6_RwRUIRf-1" target="2rZHAvcLP-O6_RwRUIRf-4">
          <mxGeometry relative="1" as="geometry" />
        </mxCell>
        <mxCell id="2rZHAvcLP-O6_RwRUIRf-9" style="edgeStyle=orthogonalEdgeStyle;rounded=0;orthogonalLoop=1;jettySize=auto;html=1;exitX=0;exitY=0.5;exitDx=0;exitDy=0;entryX=0;entryY=0.5;entryDx=0;entryDy=0;" edge="1" parent="1" source="2rZHAvcLP-O6_RwRUIRf-1" target="2rZHAvcLP-O6_RwRUIRf-5">
          <mxGeometry relative="1" as="geometry" />
        </mxCell>
        <mxCell id="2rZHAvcLP-O6_RwRUIRf-10" style="edgeStyle=orthogonalEdgeStyle;rounded=0;orthogonalLoop=1;jettySize=auto;html=1;exitX=0;exitY=0.5;exitDx=0;exitDy=0;entryX=0;entryY=0.5;entryDx=0;entryDy=0;" edge="1" parent="1" source="2rZHAvcLP-O6_RwRUIRf-1" target="2rZHAvcLP-O6_RwRUIRf-6">
          <mxGeometry relative="1" as="geometry" />
        </mxCell>
        <mxCell id="2rZHAvcLP-O6_RwRUIRf-14" style="edgeStyle=orthogonalEdgeStyle;rounded=0;orthogonalLoop=1;jettySize=auto;html=1;exitX=1;exitY=0.5;exitDx=0;exitDy=0;entryX=0;entryY=0.5;entryDx=0;entryDy=0;" edge="1" parent="1" source="2rZHAvcLP-O6_RwRUIRf-1" target="2rZHAvcLP-O6_RwRUIRf-11">
          <mxGeometry relative="1" as="geometry" />
        </mxCell>
        <mxCell id="2rZHAvcLP-O6_RwRUIRf-1" value="&lt;b&gt;Data Processor&lt;/b&gt;" style="rounded=0;whiteSpace=wrap;html=1;strokeWidth=2;" vertex="1" parent="1">
          <mxGeometry x="155" y="170" width="120" height="60" as="geometry" />
        </mxCell>
        <mxCell id="2rZHAvcLP-O6_RwRUIRf-4" value="&lt;b&gt;Dataset&lt;/b&gt;" style="text;strokeColor=none;align=center;fillColor=none;html=1;verticalAlign=middle;whiteSpace=wrap;rounded=0;strokeWidth=2;" vertex="1" parent="1">
          <mxGeometry x="185" y="260" width="60" height="30" as="geometry" />
        </mxCell>
        <mxCell id="2rZHAvcLP-O6_RwRUIRf-5" value="&lt;b&gt;Data processor attribute 1&lt;/b&gt;" style="text;strokeColor=none;align=center;fillColor=none;html=1;verticalAlign=middle;whiteSpace=wrap;rounded=0;" vertex="1" parent="1">
          <mxGeometry x="185" y="300" width="155" height="30" as="geometry" />
        </mxCell>
        <mxCell id="2rZHAvcLP-O6_RwRUIRf-6" value="&lt;span style=&quot;color: rgb(255, 255, 255); font-family: Helvetica; font-size: 12px; font-style: normal; font-variant-ligatures: normal; font-variant-caps: normal; letter-spacing: normal; orphans: 2; text-align: center; text-indent: 0px; text-transform: none; widows: 2; word-spacing: 0px; -webkit-text-stroke-width: 0px; white-space: normal; background-color: rgb(27, 29, 30); text-decoration-thickness: initial; text-decoration-style: initial; text-decoration-color: initial; float: none; display: inline !important;&quot;&gt;&lt;b&gt;Data processor attribute 2&lt;/b&gt;&lt;/span&gt;" style="text;whiteSpace=wrap;html=1;" vertex="1" parent="1">
          <mxGeometry x="185" y="340" width="170" height="30" as="geometry" />
        </mxCell>
        <mxCell id="2rZHAvcLP-O6_RwRUIRf-15" style="edgeStyle=orthogonalEdgeStyle;rounded=0;orthogonalLoop=1;jettySize=auto;html=1;exitX=1;exitY=0.5;exitDx=0;exitDy=0;entryX=0;entryY=0.5;entryDx=0;entryDy=0;" edge="1" parent="1" source="2rZHAvcLP-O6_RwRUIRf-11" target="2rZHAvcLP-O6_RwRUIRf-12">
          <mxGeometry relative="1" as="geometry" />
        </mxCell>
        <mxCell id="2rZHAvcLP-O6_RwRUIRf-16" style="edgeStyle=orthogonalEdgeStyle;rounded=0;orthogonalLoop=1;jettySize=auto;html=1;exitX=1;exitY=0.5;exitDx=0;exitDy=0;entryX=0;entryY=0.5;entryDx=0;entryDy=0;" edge="1" parent="1" source="2rZHAvcLP-O6_RwRUIRf-11" target="2rZHAvcLP-O6_RwRUIRf-13">
          <mxGeometry relative="1" as="geometry" />
        </mxCell>
        <mxCell id="2rZHAvcLP-O6_RwRUIRf-11" value="&lt;b&gt;Processor Trait&lt;/b&gt;" style="rounded=0;whiteSpace=wrap;html=1;strokeWidth=2;" vertex="1" parent="1">
          <mxGeometry x="365" y="170" width="120" height="60" as="geometry" />
        </mxCell>
        <mxCell id="2rZHAvcLP-O6_RwRUIRf-12" value="&lt;b&gt;Encode&lt;/b&gt;" style="rounded=0;whiteSpace=wrap;html=1;strokeWidth=2;" vertex="1" parent="1">
          <mxGeometry x="595" y="90" width="120" height="60" as="geometry" />
        </mxCell>
        <mxCell id="2rZHAvcLP-O6_RwRUIRf-13" value="&lt;b&gt;Decode&lt;/b&gt;" style="rounded=0;whiteSpace=wrap;html=1;strokeWidth=2;" vertex="1" parent="1">
          <mxGeometry x="595" y="245" width="120" height="60" as="geometry" />
        </mxCell>
        <mxCell id="2rZHAvcLP-O6_RwRUIRf-18" value="&lt;font style=&quot;font-size: 16px;&quot;&gt;&lt;b&gt;Data Processing Trait Design&lt;/b&gt;&lt;/font&gt;" style="text;strokeColor=none;align=center;fillColor=none;html=1;verticalAlign=middle;whiteSpace=wrap;rounded=0;" vertex="1" parent="1">
          <mxGeometry x="312" y="40" width="227" height="30" as="geometry" />
        </mxCell>
      </root>
    </mxGraphModel>
  </diagram>
</mxfile>
